<mxfile host="app.diagrams.net" modified="2023-01-09T13:24:06.134Z" agent="5.0 (Windows NT 10.0; Win64; x64) AppleWebKit/537.36 (KHTML, like Gecko) Chrome/108.0.0.0 Safari/537.36" etag="c5CHsKZr34p1XbIMGMaa" version="20.8.3" type="github">
  <diagram id="0BmBg31_EZ8mx6BzPX_g" name="Page-1">
    <mxGraphModel dx="1434" dy="764" grid="1" gridSize="10" guides="1" tooltips="1" connect="1" arrows="1" fold="1" page="1" pageScale="1" pageWidth="827" pageHeight="1169" math="0" shadow="0">
      <root>
        <mxCell id="0" />
        <mxCell id="1" parent="0" />
        <mxCell id="LxIGhchdJIqKp8i-L_MC-3" value="" style="edgeStyle=orthogonalEdgeStyle;rounded=0;orthogonalLoop=1;jettySize=auto;html=1;" edge="1" parent="1" source="LxIGhchdJIqKp8i-L_MC-1" target="LxIGhchdJIqKp8i-L_MC-2">
          <mxGeometry relative="1" as="geometry" />
        </mxCell>
        <mxCell id="LxIGhchdJIqKp8i-L_MC-1" value="start" style="ellipse;whiteSpace=wrap;html=1;" vertex="1" parent="1">
          <mxGeometry x="354" y="50" width="120" height="80" as="geometry" />
        </mxCell>
        <mxCell id="LxIGhchdJIqKp8i-L_MC-5" value="" style="edgeStyle=orthogonalEdgeStyle;rounded=0;orthogonalLoop=1;jettySize=auto;html=1;" edge="1" parent="1" source="LxIGhchdJIqKp8i-L_MC-2" target="LxIGhchdJIqKp8i-L_MC-4">
          <mxGeometry relative="1" as="geometry" />
        </mxCell>
        <mxCell id="LxIGhchdJIqKp8i-L_MC-2" value="" style="rhombus;whiteSpace=wrap;html=1;" vertex="1" parent="1">
          <mxGeometry x="374" y="190" width="80" height="80" as="geometry" />
        </mxCell>
        <mxCell id="LxIGhchdJIqKp8i-L_MC-8" value="" style="edgeStyle=orthogonalEdgeStyle;rounded=0;orthogonalLoop=1;jettySize=auto;html=1;" edge="1" parent="1" source="LxIGhchdJIqKp8i-L_MC-4" target="LxIGhchdJIqKp8i-L_MC-7">
          <mxGeometry relative="1" as="geometry" />
        </mxCell>
        <mxCell id="LxIGhchdJIqKp8i-L_MC-4" value="drive(dist,1)" style="rounded=0;whiteSpace=wrap;html=1;" vertex="1" parent="1">
          <mxGeometry x="349" y="360" width="130" height="60" as="geometry" />
        </mxCell>
        <mxCell id="LxIGhchdJIqKp8i-L_MC-10" value="" style="edgeStyle=orthogonalEdgeStyle;rounded=0;orthogonalLoop=1;jettySize=auto;html=1;entryX=1;entryY=0.5;entryDx=0;entryDy=0;" edge="1" parent="1" source="LxIGhchdJIqKp8i-L_MC-7" target="LxIGhchdJIqKp8i-L_MC-2">
          <mxGeometry relative="1" as="geometry">
            <Array as="points">
              <mxPoint x="700" y="500" />
              <mxPoint x="700" y="230" />
            </Array>
          </mxGeometry>
        </mxCell>
        <mxCell id="LxIGhchdJIqKp8i-L_MC-7" value="drive(dist,-1)" style="rounded=0;whiteSpace=wrap;html=1;" vertex="1" parent="1">
          <mxGeometry x="354" y="470" width="120" height="60" as="geometry" />
        </mxCell>
        <mxCell id="LxIGhchdJIqKp8i-L_MC-14" value="i++" style="text;html=1;align=center;verticalAlign=middle;resizable=0;points=[];autosize=1;strokeColor=none;fillColor=none;" vertex="1" parent="1">
          <mxGeometry x="550" y="470" width="40" height="30" as="geometry" />
        </mxCell>
        <mxCell id="LxIGhchdJIqKp8i-L_MC-15" value="if i &amp;gt; 5" style="text;html=1;align=center;verticalAlign=middle;resizable=0;points=[];autosize=1;strokeColor=none;fillColor=none;" vertex="1" parent="1">
          <mxGeometry x="294" y="280" width="60" height="30" as="geometry" />
        </mxCell>
        <mxCell id="LxIGhchdJIqKp8i-L_MC-18" value="" style="edgeStyle=orthogonalEdgeStyle;rounded=0;orthogonalLoop=1;jettySize=auto;html=1;" edge="1" parent="1" source="LxIGhchdJIqKp8i-L_MC-16" target="LxIGhchdJIqKp8i-L_MC-2">
          <mxGeometry relative="1" as="geometry" />
        </mxCell>
        <mxCell id="LxIGhchdJIqKp8i-L_MC-16" value="stop" style="ellipse;whiteSpace=wrap;html=1;" vertex="1" parent="1">
          <mxGeometry x="120" y="275" width="120" height="80" as="geometry" />
        </mxCell>
        <mxCell id="LxIGhchdJIqKp8i-L_MC-19" value="if i &amp;lt; 5" style="text;html=1;align=center;verticalAlign=middle;resizable=0;points=[];autosize=1;strokeColor=none;fillColor=none;" vertex="1" parent="1">
          <mxGeometry x="414" y="300" width="60" height="30" as="geometry" />
        </mxCell>
      </root>
    </mxGraphModel>
  </diagram>
</mxfile>
